<mxfile host="app.diagrams.net" modified="2024-07-22T16:12:12.225Z" agent="Mozilla/5.0 (Windows NT 10.0; Win64; x64) AppleWebKit/537.36 (KHTML, like Gecko) Chrome/126.0.0.0 Safari/537.36" version="24.7.1" etag="kZaCP60ysrnPGAOq9F1l" type="github">
  <diagram name="Page-1" id="BfU77S9988PhF9TjMA_v">
    <mxGraphModel>
      <root>
        <mxCell id="0" />
        <mxCell id="1" parent="0" />
      </root>
    </mxGraphModel>
  </diagram>
</mxfile>
